<svg width="54" height="54" viewBox="0 0 54 54" fill="none" xmlns="http://www.w3.org/2000/svg">
<g id="group-222">
<circle id="ellipse-34" cx="26.6427" cy="27" r="26.1427" stroke="#F1BB6A"/>
<g id="group-219">
<g id="icon">
<path d="M18.7787 27.9588C18.4801 27.3091 18.4801 26.5597 18.7787 25.9101C20.1609 22.903 23.1996 20.8151 26.7259 20.8151C30.2523 20.8151 33.291 22.903 34.6731 25.9101C34.9717 26.5597 34.9717 27.3091 34.6731 27.9588C33.291 30.9658 30.2523 33.0538 26.7259 33.0538C23.1996 33.0538 20.1609 30.9658 18.7787 27.9588Z" stroke="white" stroke-width="1.74839"/>
<path d="M29.3485 26.9344C29.3485 28.3828 28.1743 29.557 26.7259 29.557C25.2775 29.557 24.1033 28.3828 24.1033 26.9344C24.1033 25.486 25.2775 24.3118 26.7259 24.3118C28.1743 24.3118 29.3485 25.486 29.3485 26.9344Z" stroke="white" stroke-width="1.74839"/>
</g>
</g>
</g>
</svg>
