<svg width="80" height="80" viewBox="0 0 80 80" fill="none" xmlns="http://www.w3.org/2000/svg">
<g id="group-224">
<circle id="ellipse-32" opacity="0.5" cx="40" cy="40" r="39.5" stroke="#2E343F"/>
<g id="group-220">
<g id="icon">
<path d="M27.8586 40.9085C27.8586 37.9683 27.8586 36.4982 28.4308 35.3752C28.9341 34.3873 29.7372 33.5842 30.7251 33.0809C31.7792 32.5438 33.139 32.5108 35.7334 32.5088C35.903 32.5087 36.0779 32.5087 36.2584 32.5087H43.0832C43.2637 32.5087 43.4386 32.5087 43.6082 32.5088C46.2026 32.5108 47.5624 32.5438 48.6165 33.0809C49.6044 33.5842 50.4075 34.3873 50.9108 35.3752C51.483 36.4982 51.483 37.9683 51.483 40.9085V42.4835C51.483 45.4237 51.483 46.8938 50.9108 48.0168C50.4075 49.0046 49.6044 49.8077 48.6165 50.3111C47.4935 50.8833 46.0234 50.8833 43.0832 50.8833H36.2584C33.3182 50.8833 31.8481 50.8833 30.7251 50.3111C29.7372 49.8077 28.9341 49.0046 28.4308 48.0168C27.8586 46.8938 27.8586 45.4237 27.8586 42.4835V40.9085Z" fill="white"/>
<path d="M43.6082 41.696C43.6082 43.8705 41.8454 45.6334 39.6708 45.6334C37.4962 45.6334 35.7334 43.8705 35.7334 41.696C35.7334 39.5214 37.4962 37.7586 39.6708 37.7586C41.8454 37.7586 43.6082 39.5214 43.6082 41.696Z" fill="white"/>
<path d="M35.7334 32.5088C35.903 32.5087 36.0779 32.5087 36.2584 32.5087H43.0832C43.2637 32.5087 43.4386 32.5087 43.6082 32.5088M35.7334 32.5088C33.139 32.5108 31.7792 32.5438 30.7251 33.0809C29.7372 33.5842 28.9341 34.3873 28.4308 35.3752C27.8586 36.4982 27.8586 37.9683 27.8586 40.9085V42.4835C27.8586 45.4237 27.8586 46.8938 28.4308 48.0168C28.9341 49.0046 29.7372 49.8077 30.7251 50.3111C31.8481 50.8833 33.3182 50.8833 36.2584 50.8833H43.0832C46.0234 50.8833 47.4935 50.8833 48.6165 50.3111C49.6044 49.8077 50.4075 49.0046 50.9108 48.0168C51.483 46.8938 51.483 45.4237 51.483 42.4835V40.9085C51.483 37.9683 51.483 36.4982 50.9108 35.3752C50.4075 34.3873 49.6044 33.5842 48.6165 33.0809C47.5624 32.5438 46.2026 32.5108 43.6082 32.5088M35.7334 32.5088V31.1962C35.7334 29.7465 36.9086 28.5713 38.3583 28.5713H40.9833C42.433 28.5713 43.6082 29.7465 43.6082 31.1962V32.5088M43.6082 41.696C43.6082 43.8705 41.8454 45.6334 39.6708 45.6334C37.4962 45.6334 35.7334 43.8705 35.7334 41.696C35.7334 39.5214 37.4962 37.7586 39.6708 37.7586C41.8454 37.7586 43.6082 39.5214 43.6082 41.696Z" stroke="#784516" stroke-width="1.74839" stroke-linecap="round"/>
</g>
</g>
</g>
</svg>
