<svg width="54" height="54" viewBox="0 0 54 54" fill="none" xmlns="http://www.w3.org/2000/svg">
<g id="group-224">
<circle id="ellipse-32" cx="26.6427" cy="26.6427" r="26.1427" stroke="#F1BB6A"/>
<g id="group-220">
<path id="icon" d="M23.7993 21.6532C23.9123 21.6531 24.0288 21.6531 24.149 21.6531H28.6948C28.815 21.6531 28.9315 21.6531 29.0444 21.6532M23.7993 21.6532C22.0713 21.6545 21.1655 21.6765 20.4634 22.0342C19.8054 22.3695 19.2705 22.9044 18.9352 23.5624C18.5541 24.3104 18.5541 25.2896 18.5541 27.2479V28.297C18.5541 30.2553 18.5541 31.2345 18.9352 31.9825C19.2705 32.6405 19.8054 33.1754 20.4634 33.5107C21.2114 33.8918 22.1906 33.8918 24.149 33.8918H28.6948C30.6531 33.8918 31.6323 33.8918 32.3803 33.5107C33.0383 33.1754 33.5732 32.6405 33.9085 31.9825C34.2896 31.2345 34.2896 30.2553 34.2896 28.297V27.2479C34.2896 25.2896 34.2896 24.3104 33.9085 23.5624C33.5732 22.9044 33.0383 22.3695 32.3803 22.0342C31.6782 21.6765 30.7725 21.6545 29.0444 21.6532M23.7993 21.6532V20.7789C23.7993 19.8133 24.5821 19.0305 25.5477 19.0305H27.2961C28.2617 19.0305 29.0444 19.8133 29.0444 20.7789V21.6532M29.0444 27.7725C29.0444 29.2209 27.8703 30.395 26.4219 30.395C24.9735 30.395 23.7993 29.2209 23.7993 27.7725C23.7993 26.324 24.9735 25.1499 26.4219 25.1499C27.8703 25.1499 29.0444 26.324 29.0444 27.7725Z" stroke="white" stroke-width="1.74839" stroke-linecap="round"/>
</g>
</g>
</svg>
