<svg width="54" height="54" viewBox="0 0 54 54" fill="none" xmlns="http://www.w3.org/2000/svg">
<g id="group-223">
<circle id="ellipse-33" cx="26.6427" cy="27" r="26.1427" stroke="#F1BB6A"/>
<g id="group-218">
<path id="icon" d="M23.8005 18.912L26.3613 21.4728C26.3954 21.5069 26.4508 21.5069 26.4849 21.4728L29.0457 18.912M22.9263 30.2765L25.2116 27.828C25.2387 27.799 25.2818 27.7918 25.3168 27.8106L27.5224 28.9921C27.5605 29.0126 27.6078 29.002 27.6337 28.9674L29.9199 25.9055M21.3528 21.5346H31.4934C32.4726 21.5346 32.9622 21.5346 33.3362 21.7251C33.6652 21.8928 33.9327 22.1602 34.1003 22.4892C34.2908 22.8632 34.2908 23.3528 34.2908 24.332V31.8501C34.2908 32.8292 34.2908 33.3188 34.1003 33.6928C33.9327 34.0218 33.6652 34.2893 33.3362 34.4569C32.9622 34.6475 32.4726 34.6475 31.4934 34.6475H21.3528C20.3736 34.6475 19.884 34.6475 19.51 34.4569C19.181 34.2893 18.9135 34.0218 18.7459 33.6928C18.5554 33.3188 18.5554 32.8292 18.5554 31.8501V24.332C18.5554 23.3528 18.5554 22.8632 18.7459 22.4892C18.9135 22.1602 19.181 21.8928 19.51 21.7251C19.884 21.5346 20.3736 21.5346 21.3528 21.5346Z" stroke="white" stroke-width="1.74839" stroke-linecap="round"/>
</g>
</g>
</svg>
