<svg width="54" height="54" viewBox="0 0 54 54" fill="none" xmlns="http://www.w3.org/2000/svg">
<g id="group-225">
<circle id="ellipse-31" cx="26.6427" cy="26.6427" r="26.1427" stroke="#F1BB6A"/>
<g id="group-221">
<path id="vector" d="M29.0451 26.4224L25.8574 29.6101C25.6867 29.7808 25.4099 29.7808 25.2392 29.6101L23.7999 28.1708M18.5548 23.7998H34.2902M23.7999 20.3031H21.3522C20.373 20.3031 19.8834 20.3031 19.5094 20.4936C19.1804 20.6613 18.913 20.9287 18.7453 21.2577C18.5548 21.6317 18.5548 22.1213 18.5548 23.1005V31.4928C18.5548 32.4719 18.5548 32.9615 18.7453 33.3355C18.913 33.6645 19.1804 33.932 19.5094 34.0996C19.8834 34.2902 20.373 34.2902 21.3522 34.2902H31.4928C32.472 34.2902 32.9616 34.2902 33.3356 34.0996C33.6646 33.932 33.9321 33.6645 34.0997 33.3355C34.2902 32.9615 34.2902 32.4719 34.2902 31.4928V23.1005C34.2902 22.1213 34.2902 21.6317 34.0997 21.2577C33.9321 20.9287 33.6646 20.6613 33.3356 20.4936C32.9616 20.3031 32.472 20.3031 31.4928 20.3031H29.0451M23.7999 20.3031H29.0451M23.7999 20.3031V19.866C23.7999 19.1418 23.2128 18.5547 22.4886 18.5547C21.7644 18.5547 21.1773 19.1418 21.1773 19.866V20.3031M29.0451 20.3031V19.866C29.0451 19.1418 29.6322 18.5547 30.3564 18.5547C31.0806 18.5547 31.6677 19.1418 31.6677 19.866V20.3031" stroke="white" stroke-width="1.74839" stroke-linecap="round"/>
</g>
</g>
</svg>
