<svg width="80" height="80" viewBox="0 0 80 80" fill="none" xmlns="http://www.w3.org/2000/svg">
<g id="group-225">
<circle id="ellipse-31" cx="40" cy="40" r="39.5" stroke="#2E343F"/>
<g id="group-221">
<g id="vector">
<path d="M35.7334 30.4821H32.0585C30.5884 30.4821 29.8533 30.4821 29.2918 30.7682C28.7979 31.0198 28.3963 31.4214 28.1447 31.9153C27.8586 32.4768 27.8586 33.2119 27.8586 34.682V47.2817C27.8586 48.7518 27.8586 49.4868 28.1447 50.0483C28.3963 50.5422 28.7979 50.9438 29.2918 51.1955C29.8533 51.4816 30.5884 51.4816 32.0585 51.4816H47.2831C48.7532 51.4816 49.4883 51.4816 50.0498 51.1955C50.5437 50.9438 50.9453 50.5422 51.1969 50.0483C51.483 49.4868 51.483 48.7518 51.483 47.2817V34.682C51.483 33.2119 51.483 32.4768 51.1969 31.9153C50.9453 31.4214 50.5437 31.0198 50.0498 30.7682C49.4883 30.4821 48.7532 30.4821 47.2831 30.4821H43.6082H35.7334Z" fill="white"/>
<path d="M43.6082 39.6693L38.8224 44.4552C38.5661 44.7115 38.1506 44.7115 37.8943 44.4552L35.7334 42.2943M27.8586 35.7319H51.483M35.7334 30.4821H32.0585C30.5884 30.4821 29.8533 30.4821 29.2918 30.7682C28.7979 31.0198 28.3963 31.4214 28.1447 31.9153C27.8586 32.4768 27.8586 33.2119 27.8586 34.682V47.2817C27.8586 48.7518 27.8586 49.4868 28.1447 50.0483C28.3963 50.5422 28.7979 50.9438 29.2918 51.1955C29.8533 51.4816 30.5884 51.4816 32.0585 51.4816H47.2831C48.7532 51.4816 49.4883 51.4816 50.0498 51.1955C50.5437 50.9438 50.9453 50.5422 51.1969 50.0483C51.483 49.4868 51.483 48.7518 51.483 47.2817V34.682C51.483 33.2119 51.483 32.4768 51.1969 31.9153C50.9453 31.4214 50.5437 31.0198 50.0498 30.7682C49.4883 30.4821 48.7532 30.4821 47.2831 30.4821H43.6082M35.7334 30.4821H43.6082M35.7334 30.4821V29.8258C35.7334 28.7385 34.852 27.8571 33.7647 27.8571C32.6774 27.8571 31.796 28.7385 31.796 29.8258V30.4821M43.6082 30.4821V29.8258C43.6082 28.7385 44.4896 27.8571 45.5769 27.8571C46.6642 27.8571 47.5456 28.7385 47.5456 29.8258V30.4821" stroke="#784516" stroke-width="1.74839" stroke-linecap="round"/>
</g>
</g>
</g>
</svg>
