<svg width="80" height="80" viewBox="0 0 80 80" fill="none" xmlns="http://www.w3.org/2000/svg">
<g id="group-222">
<circle id="ellipse-34" opacity="0.5" cx="40" cy="40" r="39.5" stroke="#2E343F"/>
<g id="group-219">
<g id="icon">
<path d="M28.1948 41.4394C27.7465 40.4641 27.7465 39.3389 28.1948 38.3636C30.27 33.8489 34.8321 30.7142 40.1264 30.7142C45.4206 30.7142 49.9828 33.8489 52.0579 38.3636C52.5062 39.3389 52.5062 40.4641 52.0579 41.4394C49.9828 45.954 45.4206 49.0888 40.1264 49.0888C34.8321 49.0888 30.27 45.954 28.1948 41.4394Z" fill="white"/>
<path d="M44.0638 39.9015C44.0638 42.0761 42.3009 43.8389 40.1264 43.8389C37.9518 43.8389 36.189 42.0761 36.189 39.9015C36.189 37.7269 37.9518 35.9641 40.1264 35.9641C42.3009 35.9641 44.0638 37.7269 44.0638 39.9015Z" fill="white"/>
<path d="M28.1948 41.4394C27.7465 40.4641 27.7465 39.3389 28.1948 38.3636C30.27 33.8489 34.8321 30.7142 40.1264 30.7142C45.4206 30.7142 49.9828 33.8489 52.0579 38.3636C52.5062 39.3389 52.5062 40.4641 52.0579 41.4394C49.9828 45.954 45.4206 49.0888 40.1264 49.0888C34.8321 49.0888 30.27 45.954 28.1948 41.4394Z" stroke="#784516" stroke-width="1.74839"/>
<path d="M44.0638 39.9015C44.0638 42.0761 42.3009 43.8389 40.1264 43.8389C37.9518 43.8389 36.189 42.0761 36.189 39.9015C36.189 37.7269 37.9518 35.9641 40.1264 35.9641C42.3009 35.9641 44.0638 37.7269 44.0638 39.9015Z" stroke="#784516" stroke-width="1.74839"/>
</g>
</g>
</g>
</svg>
