<svg width="80" height="80" viewBox="0 0 80 80" fill="none" xmlns="http://www.w3.org/2000/svg">
<g id="group-223">
<circle id="ellipse-33" opacity="0.5" cx="40" cy="40" r="39.5" stroke="#2E343F"/>
<g id="group-218">
<g id="icon">
<path d="M27.8586 47.2816C27.8586 48.7517 27.8586 49.4867 28.1447 50.0482C28.3963 50.5421 28.7979 50.9437 29.2918 51.1954C29.8533 51.4815 30.5884 51.4815 32.0585 51.4815H47.2831C48.7532 51.4815 49.4883 51.4815 50.0498 51.1954C50.5437 50.9437 50.9453 50.5421 51.1969 50.0482C51.483 49.4867 51.483 48.7517 51.483 47.2816V35.9943C51.483 34.5242 51.483 33.7892 51.1969 33.2277C50.9453 32.7338 50.5437 32.3322 50.0498 32.0805C49.4883 31.7944 48.7532 31.7944 47.2831 31.7944H32.0585C30.5884 31.7944 29.8533 31.7944 29.2918 32.0805C28.7979 32.3322 28.3963 32.7338 28.1447 33.2277C27.8586 33.7892 27.8586 34.5242 27.8586 35.9943V47.2816Z" fill="white"/>
<path d="M35.7334 27.857L39.578 31.7016C39.6292 31.7529 39.7124 31.7529 39.7636 31.7016L43.6082 27.857M34.4209 44.9191L37.8519 41.243C37.8926 41.1995 37.9574 41.1888 38.0099 41.2169L41.3212 42.9908C41.3784 43.0215 41.4495 43.0057 41.4883 42.9537L44.9207 38.3568M32.0585 31.7944H47.2831C48.7532 31.7944 49.4883 31.7944 50.0498 32.0805C50.5437 32.3322 50.9453 32.7338 51.1969 33.2277C51.483 33.7892 51.483 34.5242 51.483 35.9943V47.2816C51.483 48.7517 51.483 49.4867 51.1969 50.0482C50.9453 50.5421 50.5437 50.9437 50.0498 51.1954C49.4883 51.4815 48.7532 51.4815 47.2831 51.4815H32.0585C30.5884 51.4815 29.8533 51.4815 29.2918 51.1954C28.7979 50.9437 28.3963 50.5421 28.1447 50.0482C27.8586 49.4867 27.8586 48.7517 27.8586 47.2816V35.9943C27.8586 34.5242 27.8586 33.7892 28.1447 33.2277C28.3963 32.7338 28.7979 32.3322 29.2918 32.0805C29.8533 31.7944 30.5884 31.7944 32.0585 31.7944Z" stroke="#784516" stroke-width="1.74839" stroke-linecap="round"/>
</g>
</g>
</g>
</svg>
