<svg width="168" height="34" viewBox="0 0 168 34" fill="none" xmlns="http://www.w3.org/2000/svg">
<path fill-rule="evenodd" clip-rule="evenodd" d="M23.7632 11.957C19.6855 8.81453 13.8324 9.57268 10.6899 13.6504C7.54747 17.7281 8.30562 23.5812 12.3833 26.7236L23.7632 11.957Z" fill="#2E343F"/>
<path fill-rule="evenodd" clip-rule="evenodd" d="M30.9811 7.27609C35.0588 10.4186 35.8169 16.2717 32.6745 20.3493C29.532 24.427 23.6789 25.1852 19.6012 22.0427L30.9811 7.27609Z" fill="#2E343F"/>
<path d="M46.9435 25.5V9.25801H53.4403C54.5983 9.25801 55.5344 9.49111 56.2488 9.95732C56.9631 10.416 57.4857 10.995 57.8166 11.6943C58.1474 12.3936 58.3129 13.1004 58.3129 13.8148C58.3129 14.7246 58.1061 15.4803 57.6925 16.0819C57.2865 16.6835 56.7263 17.0857 56.0119 17.2888V16.7248C57.027 16.9354 57.7865 17.4053 58.2903 18.1347C58.8016 18.8641 59.0573 19.68 59.0573 20.5823C59.0573 21.5523 58.8768 22.4058 58.5159 23.1427C58.1625 23.8796 57.6211 24.4586 56.8917 24.8796C56.1623 25.2932 55.2449 25.5 54.1396 25.5H46.9435ZM50.0565 22.6125H53.8238C54.2373 22.6125 54.6058 22.5261 54.9291 22.3531C55.2524 22.1726 55.5043 21.9245 55.6848 21.6087C55.8728 21.2854 55.9668 20.9056 55.9668 20.4695C55.9668 20.086 55.8878 19.7439 55.7299 19.4431C55.572 19.1423 55.3314 18.9055 55.0081 18.7325C54.6922 18.552 54.2975 18.4618 53.8238 18.4618H50.0565V22.6125ZM50.0565 15.5969H53.3951C53.741 15.5969 54.0493 15.5367 54.32 15.4164C54.5907 15.2961 54.805 15.1119 54.9629 14.8638C55.1209 14.6081 55.1998 14.281 55.1998 13.8825C55.1998 13.3862 55.0457 12.9689 54.7374 12.6305C54.4291 12.2921 53.9817 12.1229 53.3951 12.1229H50.0565V15.5969ZM65.841 25.8609C64.886 25.8609 64.1078 25.6993 63.5062 25.3759C62.9046 25.0526 62.4347 24.6428 62.0963 24.1465C61.7655 23.6502 61.5286 23.1351 61.3857 22.6013C61.2429 22.0599 61.1564 21.5673 61.1263 21.1237C61.0962 20.68 61.0812 20.3567 61.0812 20.1537V13.3185H64.1942V19.0709C64.1942 19.3491 64.2093 19.7063 64.2393 20.1424C64.2694 20.571 64.3634 21.0034 64.5213 21.4395C64.6792 21.8756 64.9349 22.2403 65.2883 22.5336C65.6492 22.8268 66.1568 22.9735 66.811 22.9735C67.0742 22.9735 67.3562 22.9321 67.6569 22.8494C67.9577 22.7667 68.2397 22.6088 68.5029 22.3757C68.7661 22.1351 68.9804 21.7854 69.1458 21.3267C69.3187 20.8605 69.4052 20.2514 69.4052 19.4995L71.1648 20.3341C71.1648 21.2966 70.9692 22.199 70.5782 23.0411C70.1872 23.8833 69.597 24.5638 68.8074 25.0827C68.0254 25.6015 67.0366 25.8609 65.841 25.8609ZM69.7887 25.5V21.4621H69.4052V13.3185H72.4957V25.5H69.7887ZM77.2046 30.914L79.5506 24.4623L79.5957 26.3572L74.2945 13.3185H77.4753L81.0395 22.5449H80.3176L83.8593 13.3185H86.9272L80.0469 30.914H77.2046ZM95.4839 25.8384C93.8597 25.8384 92.4573 25.485 91.2767 24.7781C90.1037 24.0713 89.1976 23.0825 88.5584 21.8117C87.9268 20.5409 87.611 19.0634 87.611 17.379C87.611 15.6947 87.9268 14.2171 88.5584 12.9463C89.1976 11.6755 90.1037 10.6867 91.2767 9.97988C92.4573 9.27305 93.8597 8.91964 95.4839 8.91964C97.3487 8.91964 98.9127 9.38208 100.176 10.307C101.447 11.2319 102.342 12.4838 102.86 14.0629L99.7699 14.9201C99.4692 13.9351 98.9616 13.1719 98.2472 12.6305C97.5329 12.0816 96.6118 11.8071 95.4839 11.8071C94.4537 11.8071 93.5927 12.0364 92.9009 12.4951C92.2167 12.9538 91.7016 13.6005 91.3557 14.4351C91.0098 15.2698 90.8368 16.2511 90.8368 17.379C90.8368 18.5069 91.0098 19.4882 91.3557 20.3229C91.7016 21.1575 92.2167 21.8042 92.9009 22.2629C93.5927 22.7216 94.4537 22.9509 95.4839 22.9509C96.6118 22.9509 97.5329 22.6765 98.2472 22.1275C98.9616 21.5786 99.4692 20.8154 99.7699 19.8379L102.86 20.6951C102.342 22.2742 101.447 23.5261 100.176 24.451C98.9127 25.3759 97.3487 25.8384 95.4839 25.8384ZM106.9 30.914L109.247 24.4623L109.292 26.3572L103.99 13.3185H107.171L110.735 22.5449H110.014L113.555 13.3185H116.623L109.743 30.914H106.9ZM123.138 25.8384C121.874 25.8384 120.791 25.5564 119.889 24.9924C118.987 24.4285 118.295 23.6615 117.814 22.6915C117.333 21.7215 117.092 20.6274 117.092 19.4093C117.092 18.1761 117.34 17.0745 117.836 16.1045C118.34 15.1345 119.047 14.3712 119.957 13.8148C120.867 13.2584 121.942 12.9801 123.183 12.9801C124.619 12.9801 125.822 13.3448 126.792 14.0742C127.77 14.7961 128.394 15.7849 128.664 17.0406L125.596 17.8527C125.416 17.2211 125.1 16.7286 124.649 16.3752C124.205 16.0217 123.701 15.845 123.138 15.845C122.491 15.845 121.961 16.0029 121.547 16.3188C121.134 16.6271 120.829 17.0519 120.634 17.5933C120.438 18.1272 120.34 18.7325 120.34 19.4093C120.34 20.4695 120.573 21.3305 121.04 21.9922C121.513 22.6464 122.213 22.9735 123.138 22.9735C123.829 22.9735 124.356 22.8156 124.717 22.4997C125.078 22.1839 125.348 21.7328 125.529 21.1462L128.664 21.8004C128.318 23.0938 127.664 24.0901 126.702 24.7894C125.739 25.4887 124.551 25.8384 123.138 25.8384ZM130.815 25.5V8.91964H133.883V25.5H130.815ZM142.927 25.8384C141.679 25.8384 140.577 25.5714 139.622 25.0376C138.675 24.4962 137.93 23.7555 137.389 22.8156C136.855 21.8681 136.588 20.7853 136.588 19.5672C136.588 18.2362 136.851 17.0782 137.378 16.0932C137.904 15.1081 138.63 14.3449 139.555 13.8035C140.479 13.2546 141.543 12.9801 142.747 12.9801C144.025 12.9801 145.111 13.2809 146.006 13.8825C146.901 14.484 147.563 15.33 147.991 16.4203C148.42 17.5106 148.57 18.7927 148.443 20.2665H145.408V19.1386C145.408 17.8978 145.209 17.0068 144.811 16.4654C144.42 15.9165 143.777 15.642 142.882 15.642C141.837 15.642 141.066 15.9616 140.57 16.6007C140.081 17.2324 139.837 18.1685 139.837 19.4093C139.837 20.5447 140.081 21.4245 140.57 22.0486C141.066 22.6652 141.792 22.9735 142.747 22.9735C143.348 22.9735 143.863 22.8419 144.292 22.5787C144.72 22.3155 145.047 21.9358 145.273 21.4395L148.341 22.3193C147.882 23.4322 147.157 24.2969 146.164 24.9135C145.179 25.5301 144.1 25.8384 142.927 25.8384ZM138.889 20.2665V17.9881H146.965V20.2665H138.889ZM155.749 25.8384C154.215 25.8384 152.974 25.4925 152.027 24.8007C151.087 24.1014 150.516 23.1163 150.313 21.8456L153.448 21.3718C153.576 21.9433 153.858 22.3907 154.294 22.714C154.738 23.0374 155.298 23.1991 155.975 23.1991C156.531 23.1991 156.96 23.0938 157.261 22.8832C157.561 22.6652 157.712 22.3644 157.712 21.9809C157.712 21.7403 157.652 21.5485 157.531 21.4057C157.411 21.2553 157.14 21.1086 156.719 20.9658C156.306 20.8229 155.659 20.6349 154.779 20.4018C153.787 20.1462 152.993 19.8604 152.399 19.5446C151.805 19.2288 151.377 18.8528 151.113 18.4167C150.85 17.973 150.719 17.4392 150.719 16.815C150.719 16.033 150.918 15.3563 151.316 14.7848C151.715 14.2058 152.275 13.7622 152.997 13.4539C153.726 13.138 154.584 12.9801 155.569 12.9801C156.524 12.9801 157.37 13.1268 158.106 13.42C158.843 13.7133 159.437 14.1306 159.889 14.672C160.347 15.2134 160.629 15.8526 160.735 16.5895L157.599 17.1534C157.546 16.7023 157.351 16.3451 157.012 16.0819C156.674 15.8187 156.215 15.6646 155.636 15.6195C155.072 15.5819 154.617 15.6571 154.272 15.845C153.933 16.033 153.764 16.3037 153.764 16.6571C153.764 16.8677 153.835 17.0444 153.978 17.1873C154.129 17.3301 154.433 17.4768 154.892 17.6271C155.358 17.7775 156.065 17.973 157.012 18.2137C157.937 18.4543 158.678 18.7363 159.234 19.0596C159.798 19.3754 160.208 19.7589 160.464 20.2101C160.719 20.6537 160.847 21.1914 160.847 21.823C160.847 23.0712 160.396 24.0525 159.494 24.7669C158.591 25.4812 157.343 25.8384 155.749 25.8384Z" fill="#2E343F"/>
</svg>
